PathFileType	4	(X/Y/Z)	/Users/itak/Documents/Research/Walk-IL/dataset/trc/00158_00008.trc
DataRate	CameraRate	NumFrames	NumMarkers	Units	OrigDataRate	OrigDataStartFrame	OrigNumFrames
100.000000	100.000000	4	53	mm	100.000000	339	543
Frame#	Time	RPSI			LPSI			L3			STRN			T10			C7			CLAV			RBAK			LBAK			LSHO			LUPA			LAEL			LAOL			LWTS			LWPS			LFRA			LIFD			LHPS			LHTS			RSHO			RUPA			RAEL			RAOL			RWTS			RWPS			RFRA			RIFD			RHTS			RHPS			RBHD			LFHD			RFHD			LBHD			LHIP			RHIP			RASI			LASI			LKNE			LTHI			LANK			LTIP			LTOE			LMT1			LMT5			LHEE			RKNE			RTHI			RANK			RTIP			RTOE			RMT1			RMT5			RHEE			
		X1	Y1	Z1	X2	Y2	Z2	X3	Y3	Z3	X4	Y4	Z4	X5	Y5	Z5	X6	Y6	Z6	X7	Y7	Z7	X8	Y8	Z8	X9	Y9	Z9	X10	Y10	Z10	X11	Y11	Z11	X12	Y12	Z12	X13	Y13	Z13	X14	Y14	Z14	X15	Y15	Z15	X16	Y16	Z16	X17	Y17	Z17	X18	Y18	Z18	X19	Y19	Z19	X20	Y20	Z20	X21	Y21	Z21	X22	Y22	Z22	X23	Y23	Z23	X24	Y24	Z24	X25	Y25	Z25	X26	Y26	Z26	X27	Y27	Z27	X28	Y28	Z28	X29	Y29	Z29	X30	Y30	Z30	X31	Y31	Z31	X32	Y32	Z32	X33	Y33	Z33	X34	Y34	Z34	X35	Y35	Z35	X36	Y36	Z36	X37	Y37	Z37	X38	Y38	Z38	X39	Y39	Z39	X40	Y40	Z40	X41	Y41	Z41	X42	Y42	Z42	X43	Y43	Z43	X44	Y44	Z44	X45	Y45	Z45	X46	Y46	Z46	X47	Y47	Z47	X48	Y48	Z48	X49	Y49	Z49	X50	Y50	Z50	X51	Y51	Z51	X52	Y52	Z52	X53	Y53	Z53	

340	3.39	-43.19521331787109	1023.54296875	-3.455740451812744	-33.55284881591797	1022.94873046875	-125.9799575805664	-40.76580810546875	1060.4912109375	-58.54109191894531	217.2650909423828	1267.90234375	-61.61732482910156	-76.36238098144531	1217.031127929688	-65.96837615966797	-11.87818336486816	1486.23095703125	-92.37464141845703	188.0055541992188	1379.900756835938	-79.89699554443359	-80.31131744384766	1316.294555664062	26.52889442443848	-19.78178215026855	1454.650268554688	-191.0536499023438	55.78565979003906	1433.73779296875	-269.4229736328125	14.63172054290771	1295.708862304688	-326.3561401367188	19.74457740783691	1079.754638671875	-327.563720703125	-8.252147674560547	1068.489013671875	-244.3020324707031	137.6113739013672	851.0782470703125	-308.89892578125	49.60074996948242	827.1869506835938	-328.1828002929688	30.95061111450195	968.5769653320312	-336.8167419433594	161.0993804931641	668.6449584960938	-280.3671569824219	73.37675476074219	757.9876098632812	-325.6926574707031	145.486083984375	772.0348510742188	-327.0040588378906	48.31998825073242	1474.293823242188	91.23912048339844	27.10939407348633	1410.305908203125	163.444580078125	14.04500293731689	1124.458862304688	234.3896942138672	14.60915470123291	1110.864135742188	137.4328308105469	175.3875885009766	913.1115112304688	232.0084228515625	100.6761627197266	887.9549560546875	272.3681640625	44.43462753295898	1054.568969726562	256.2426147460938	214.0513763427734	729.0717163085938	216.43310546875	212.1073913574219	824.016845703125	246.8942260742188	138.0439910888672	809.0139770507812	274.4812316894531	69.85010528564453	1658.995239257812	-27.76871681213379	220.1940460205078	1672.171142578125	-184.2791900634766	239.2202301025391	1686.212890625	-57.42704010009766	41.98687362670898	1653.017944335938	-164.3277740478516	79.79563140869141	969.083251953125	-235.95654296875	94.31645965576172	975.9083251953125	135.3261260986328	181.3484649658203	1007.087219238281	91.04360198974609	198.5520782470703	1007.619750976562	-165.4467163085938	296.1377868652344	505.7469787597656	-195.1007080078125	236.4301452636719	635.6115112304688	-228.7103118896484	335.2441711425781	35.55553436279297	-188.0779418945312	322.462158203125	274.7345581054688	-202.9095306396484	549.587158203125	76.93618774414062	-179.3952484130859	506.1548461914062	69.67076873779297	-128.2717132568359	439.8624877929688	42.06471252441406	-230.8017730712891	290.5857849121094	33.81593704223633	-114.806755065918	-0.01450937427580357	486.7116088867188	106.1962585449219	106.8971633911133	742.2269287109375	137.6520538330078	-344.5395812988281	110.3124923706055	66.91428375244141	-53.36088180541992	369.7242736816406	86.99850463867188	-151.6927185058594	40.30441665649414	42.39785003662109	-194.5591125488281	45.21006011962891	-4.983891010284424	-257.4075317382812	43.30440902709961	105.8298492431641	-377.7431335449219	150.3489837646484	-2.182941436767578	
341	3.4	-30.32098388671875	1025.265502929688	-4.50367546081543	-20.93427467346191	1025.236206054688	-127.4819183349609	-27.62432479858398	1062.812133789062	-60.09712219238281	229.3584136962891	1270.600341796875	-63.38161849975586	-64.16824340820312	1218.562255859375	-68.44528198242188	-0.6514874696731567	1487.848266601562	-95.23849487304688	199.6723327636719	1382.488037109375	-81.82575225830078	-68.64157104492188	1317.909423828125	23.81515121459961	-7.849784851074219	1456.23779296875	-193.8402557373047	68.16211700439453	1435.71435546875	-271.9016723632812	27.87214279174805	1297.50732421875	-329.0364685058594	33.47168350219727	1081.652221679688	-329.5027465820312	5.30048942565918	1070.652954101562	-246.2356567382812	148.1345672607422	851.3490600585938	-310.3319396972656	59.78308486938477	828.9046020507812	-329.7156677246094	43.42041015625	970.5459594726562	-338.5302429199219	168.158203125	668.4296875	-280.8914489746094	82.27580261230469	759.2828369140625	-326.8776245117188	154.5853118896484	771.931884765625	-328.0389404296875	58.96953964233398	1476.570434570312	88.60435485839844	37.60924530029297	1412.638305664062	160.7561645507812	23.51252937316895	1126.692504882812	230.60009765625	25.28364372253418	1113.4033203125	133.6170501708984	183.8091125488281	914.3797607421875	229.3972320556641	108.6627883911133	889.7607421875	269.2539367675781	53.47446060180664	1056.672729492188	252.696044921875	221.2698822021484	730.0005493164062	213.9443054199219	219.8112487792969	824.9608154296875	244.4274749755859	145.4638519287109	810.528076171875	271.5508422851562	80.48410797119141	1660.955078125	-30.30113410949707	231.6981506347656	1674.478515625	-185.9455871582031	249.9751739501953	1688.44482421875	-58.99119567871094	53.43829345703125	1655.050659179688	-167.0916137695312	92.15094757080078	971.9741821289062	-237.6029663085938	107.6356811523438	977.03955078125	133.6730041503906	194.1294403076172	1009.079895019531	88.87549591064453	211.2592926025391	1010.482543945312	-167.3944854736328	306.7873229980469	506.9198303222656	-196.5384826660156	248.2800445556641	637.85498046875	-230.1851501464844	336.4376220703125	35.51360702514648	-188.5351104736328	329.2726135253906	275.076904296875	-204.0482788085938	551.8748779296875	71.73566436767578	-178.5960083007812	507.9246826171875	65.93346405029297	-127.8102416992188	441.561279296875	39.45952987670898	-230.7046356201172	291.3491516113281	35.14025115966797	-115.5100860595703	17.3066577911377	486.4542541503906	107.2924728393555	121.6698303222656	743.3964233398438	135.9328308105469	-337.424560546875	119.0519638061523	67.06346130371094	-38.56157684326172	370.1559753417969	88.79627227783203	-151.2128753662109	40.0358772277832	42.38494110107422	-191.9699249267578	45.90967178344727	-5.128447532653809	-254.8023529052734	46.38262939453125	105.7142333984375	-367.4649963378906	161.2205047607422	-1.931264758110046	
342	3.41	-17.77165794372559	1027.112670898438	-5.66914701461792	-8.524723052978516	1027.432250976562	-129.0101623535156	-14.65831470489502	1065.010009765625	-61.73982620239258	241.3439483642578	1273.371948242188	-65.12666320800781	-52.0459098815918	1220.185913085938	-70.81407928466797	10.51720905303955	1489.53466796875	-98.03978729248047	211.2669982910156	1385.171264648438	-83.71445465087891	-56.99794006347656	1319.656494140625	21.21430587768555	4.038249492645264	1457.927978515625	-196.5315399169922	80.47489166259766	1437.876708984375	-274.2912292480469	41.10515594482422	1299.55419921875	-331.739990234375	47.25923156738281	1083.815063476562	-331.5114440917969	18.81570053100586	1073.028198242188	-248.2869110107422	158.7948608398438	851.9436645507812	-311.8340454101562	70.152099609375	830.9601440429688	-331.5369567871094	56.03377914428711	972.82421875	-340.4026794433594	175.1355743408203	668.5379638671875	-281.3766479492188	91.3233642578125	760.9237670898438	-328.3082580566406	163.8251037597656	772.125244140625	-329.0979614257812	69.59895324707031	1478.965576171875	85.9931640625	48.10074615478516	1415.14599609375	158.1249389648438	32.91586685180664	1129.104125976562	226.882080078125	35.9145393371582	1116.148803710938	129.8858795166016	192.2076568603516	915.84130859375	226.8277282714844	116.6463623046875	891.748779296875	266.1918029785156	62.46416854858398	1058.95458984375	249.2235412597656	228.4484100341797	731.1124877929688	211.3845062255859	227.49267578125	826.0714111328125	241.9406280517578	152.8589477539062	812.2151489257812	268.6176452636719	91.10774230957031	1662.962280273438	-32.78026580810547	243.1319274902344	1676.832397460938	-187.5960235595703	260.6266174316406	1690.677124023438	-60.48903656005859	64.85710144042969	1657.130249023438	-169.7958679199219	104.3385162353516	974.7018432617188	-239.3805999755859	120.6637344360352	978.2868041992188	131.9302825927734	206.5991363525391	1011.204162597656	86.63929748535156	223.7315063476562	1013.330993652344	-169.4602203369141	316.8645324707031	507.8993835449219	-197.8651733398438	259.6821899414062	639.900146484375	-231.5953674316406	337.5092163085938	35.46433258056641	-189.0045318603516	335.6624450683594	275.3466491699219	-205.1312866210938	553.7132568359375	67.12579345703125	-177.6586456298828	509.313232421875	62.63801956176758	-127.2391052246094	443.0331420898438	37.28440475463867	-230.6170349121094	291.9681091308594	36.27554321289062	-116.2729568481445	35.46469497680664	486.0645751953125	108.4492950439453	136.5911407470703	744.6817016601562	134.2745971679688	-329.2434997558594	128.4710693359375	67.03731536865234	-22.74625396728516	370.5182495117188	90.62921142578125	-150.3331756591797	39.50539398193359	42.58282852172852	-188.7663421630859	47.02008056640625	-5.087959766387939	-251.6944122314453	50.31157684326172	105.5470809936523	-355.9091491699219	172.4763031005859	-1.948651909828186	
343	3.42	-5.562729358673096	1028.998657226562	-7.068653583526611	3.705411911010742	1029.47412109375	-130.6304779052734	-1.907187581062317	1066.991821289062	-63.52094268798828	253.2108154296875	1276.130126953125	-66.83427429199219	-40.01396179199219	1221.852905273438	-73.11244964599609	21.64234733581543	1491.25048828125	-100.7641906738281	222.7865295410156	1387.859985351562	-85.54409790039062	-45.41298294067383	1321.465942382812	18.70171737670898	15.88120365142822	1459.666625976562	-199.1278228759766	92.72929382324219	1440.143676757812	-276.5861206054688	54.30164337158203	1301.760620117188	-334.4395141601562	61.05177688598633	1086.151000976562	-333.5957336425781	32.24061584472656	1075.515380859375	-250.4651641845703	169.6322326660156	852.8099975585938	-313.4026184082031	80.76711273193359	833.2630004882812	-333.6567687988281	68.77767944335938	975.3117065429688	-342.4435119628906	182.1477813720703	668.9404907226562	-281.8554382324219	100.6105499267578	762.8328857421875	-330.0064086914062	173.2928771972656	772.5759887695312	-330.1867370605469	80.20482635498047	1481.389770507812	83.43476867675781	58.56564331054688	1417.724243164062	155.5662384033203	42.27096557617188	1131.591674804688	223.3075103759766	46.46311569213867	1118.982421875	126.3074111938477	200.6264190673828	917.4303588867188	224.3160858154297	124.6845626831055	893.830810546875	263.2144165039062	71.42250061035156	1061.315795898438	245.8803558349609	235.6725769042969	732.3570556640625	208.7462310791016	235.21728515625	827.2942504882812	239.4339904785156	160.3105163574219	813.9954833984375	265.6970520019531	101.7098541259766	1664.970458984375	-35.18312835693359	254.4805603027344	1679.185791015625	-189.2184448242188	271.1777648925781	1692.881103515625	-61.92328643798828	76.22103881835938	1659.196533203125	-172.4156799316406	116.4299240112305	977.2130737304688	-241.3018646240234	133.3057098388672	979.58984375	130.0963134765625	218.7181091308594	1013.379516601562	84.37938690185547	235.9979400634766	1016.058532714844	-171.6072235107422	326.2916259765625	508.6321411132812	-199.003662109375	270.5040283203125	641.6157836914062	-232.9161071777344	338.449462890625	35.44012451171875	-189.4250183105469	341.6367492675781	275.5113525390625	-206.0638275146484	555.1669921875	63.05181884765625	-176.6352996826172	510.3954467773438	59.70124816894531	-126.5667572021484	444.2637634277344	35.59543991088867	-230.5360107421875	292.4610290527344	37.21525955200195	-117.0112075805664	54.35147857666016	485.552490234375	109.6014785766602	151.561279296875	746.0361938476562	132.7087554931641	-319.9506225585938	138.5469207763672	66.80841064453125	-5.968159675598145	370.8197631835938	92.40357971191406	-148.8557739257812	38.65947723388672	43.08924102783203	-184.7748260498047	48.68123245239258	-4.76643705368042	-247.9716186523438	55.2016716003418	105.305061340332	-343.1291809082031	184.0220031738281	-2.254454851150513	
